<svg width="55" height="55" viewBox="0 0 55 55" fill="none" xmlns="http://www.w3.org/2000/svg">
  <path d="M34.8 23.8V23.4C34.8 23.1 34.6 22.9 34.3 22.9H31.4C31.4 22.8334 31.4 22.7334 31.4 22.6C31.4 20.2 29.8 18.1 27.8 18.1C25.9 18.1 24.3 20.2 24.3 22.6C24.3 22.7334 24.3 22.8334 24.3 22.9H21.6C21.3 22.9 21 23.1 21 23.4V23.8H19.2C18.9 23.8 18.7 24 18.8 24.3L20.8 32.7C20.9 33.4 21.5 33.9 22.1 33.9C25.9 34.1 29.7667 34.1 33.7 33.9C34.4 33.9 34.9 33.4 35.1 32.7L36.9 24.3C36.9 24 36.8 23.8 36.5 23.8H34.8Z" fill="none" stroke="#404040" stroke-width="0.3" stroke-miterlimit="100"/>
  <path d="M50.6 27.6H41.7" fill="none" stroke="#404040" stroke-width="0.3" stroke-miterlimit="100"/>
  <path d="M13.9 27.6H5" fill="none" stroke="#404040" stroke-width="0.3" stroke-miterlimit="100"/>
  <path d="M27.8 50.4V41.5" fill="none" stroke="#404040" stroke-width="0.3" stroke-miterlimit="100"/>
  <path d="M27.8 13.7001V4.80005" fill="none" stroke="#404040" stroke-width="0.3" stroke-miterlimit="100"/>
  <path d="M52.5 29.6C51.5 29.6 50.6 28.7 50.6 27.6C50.6 26.6 51.5 25.7 52.5 25.7C53.6 25.7 54.5 26.6 54.5 27.6C54.5 28.7 53.6 29.6 52.5 29.6Z" fill="none" stroke="#404040" stroke-width="0.3" stroke-miterlimit="100"/>
  <path d="M27.8 4.89999C26.8 4.89999 25.9 4 25.9 3C25.9 1.9 26.8 1 27.8 1C28.9 1 29.8 1.9 29.8 3C29.8 4 28.9 4.89999 27.8 4.89999Z" fill="none" stroke="#404040" stroke-width="0.3" stroke-miterlimit="100"/>
  <path d="M3 29.6C1.9 29.6 1 28.7 1 27.6C1 26.6 1.9 25.7 3 25.7C4 25.7 4.89999 26.6 4.89999 27.6C4.89999 28.7 4 29.6 3 29.6Z" fill="none" stroke="#404040" stroke-width="0.3" stroke-miterlimit="100"/>
  <path d="M27.8 54.1001C26.8 54.1001 25.9 53.3001 25.9 52.2001C25.9 51.1001 26.8 50.3 27.8 50.3C28.9 50.3 29.8 51.1001 29.8 52.2001C29.8 53.3001 28.9 54.1001 27.8 54.1001Z" fill="none" stroke="#404040" stroke-width="0.3" stroke-miterlimit="100"/>
</svg>

