<svg width="19" height="161" viewBox="0 0 19 161" fill="none" xmlns="http://www.w3.org/2000/svg">
<path d="M1.80216 146.282H4.40537C3.60438 147.149 3.00371 148.051 2.60321 148.985C2.26946 149.92 2.10259 150.921 2.10259 151.989C2.10259 154.058 2.73673 155.627 4.00497 156.695C5.27322 157.829 7.10883 158.397 9.51181 158.397C11.9148 158.397 13.7504 157.829 15.0187 156.695C16.2869 155.627 16.9209 154.058 16.9209 151.989C16.9209 150.921 16.7207 149.92 16.3202 148.985C15.9864 148.051 15.4191 147.149 14.6181 146.282H17.2213C17.8221 147.149 18.256 148.084 18.523 149.085C18.79 150.02 18.9234 151.021 18.9234 152.089C18.9234 154.826 18.089 156.995 16.4203 158.597C14.7516 160.199 12.4488 161 9.51181 161C6.57483 161 4.27195 160.199 2.60321 158.597C0.86772 156.995 0 154.826 0 152.089C0 151.021 0.166874 149.986 0.500622 148.985C0.76762 148.051 1.20142 147.149 1.80216 146.282ZM2.00249 134.467C2.00249 136.269 2.66998 137.704 4.00497 138.772C5.33997 139.774 7.17558 140.274 9.51181 140.274C11.7813 140.274 13.5834 139.774 14.9184 138.772C16.2534 137.704 16.9209 136.269 16.9209 134.467C16.9209 132.665 16.2534 131.23 14.9184 130.162C13.5834 129.16 11.7813 128.66 9.51181 128.66C7.17558 128.66 5.33997 129.16 4.00497 130.162C2.66998 131.23 2.00249 132.665 2.00249 134.467ZM0 134.467C0 131.864 0.86772 129.828 2.60321 128.359C4.3387 126.824 6.64158 126.057 9.51181 126.057C12.382 126.057 14.6848 126.824 16.4203 128.359C18.089 129.828 18.9234 131.864 18.9234 134.467C18.9234 137.003 18.089 139.039 16.4203 140.575C14.6848 142.11 12.382 142.877 9.51181 142.877C6.64158 142.877 4.3387 142.11 2.60321 140.575C0.86772 139.039 0 137.003 0 134.467ZM18.6231 121.551H0.4004V119.048H16.5205V110.137H18.6231V121.551ZM18.6231 107.033H0.4004V104.53H16.5205V95.6188H18.6231V107.033ZM18.6231 92.5149H0.4004V81.0006H2.40289V90.0118H7.80963V81.301H9.91221V90.0118H16.5205V80.7003H18.6231V92.5149ZM1.80216 62.4776H4.40537C3.60438 63.2786 3.00371 64.1463 2.60321 65.0808C2.26946 66.0153 2.10259 67.0166 2.10259 68.0846C2.10259 70.2205 2.73673 71.8226 4.00497 72.8905C5.27322 74.0253 7.10883 74.5926 9.51181 74.5926C11.9148 74.5926 13.7504 74.0253 15.0187 72.8905C16.2869 71.8226 16.9209 70.2205 16.9209 68.0846C16.9209 67.0166 16.7207 66.0153 16.3202 65.0808C15.9864 64.1463 15.4191 63.2786 14.6181 62.4776H17.2213C17.8221 63.3454 18.256 64.2465 18.523 65.181C18.79 66.1822 18.9234 67.2168 18.9234 68.2848C18.9234 71.0215 18.089 73.1909 16.4203 74.7929C14.7516 76.3949 12.4488 77.1959 9.51181 77.1959C6.57483 77.1959 4.27195 76.3949 2.60321 74.7929C0.86772 73.1909 0 71.0215 0 68.2848C0 67.1501 0.166874 66.1155 0.500622 65.181C0.76762 64.1797 1.20142 63.2786 1.80216 62.4776ZM2.40289 60.5752H0.4004V45.1561H2.40289V51.564H18.6231V54.0671H2.40289V60.5752ZM18.6231 42.1524H0.4004V39.6492H18.6231V42.1524ZM2.00249 26.7332C2.00249 28.5355 2.66998 29.9706 4.00497 31.0385C5.33997 32.1065 7.17558 32.6405 9.51181 32.6405C11.7813 32.6405 13.5834 32.1065 14.9184 31.0385C16.2534 29.9706 16.9209 28.5355 16.9209 26.7332C16.9209 24.931 16.2534 23.5292 14.9184 22.528C13.5834 21.46 11.7813 20.926 9.51181 20.926C7.17558 20.926 5.33997 21.46 4.00497 22.528C2.66998 23.5292 2.00249 24.931 2.00249 26.7332ZM0 26.7332C0 24.1967 0.86772 22.1609 2.60321 20.6256C4.3387 19.0904 6.64158 18.3228 9.51181 18.3228C12.382 18.3228 14.6848 19.0904 16.4203 20.6256C18.089 22.1609 18.9234 24.1967 18.9234 26.7332C18.9234 29.3364 18.089 31.4057 16.4203 32.9409C14.6848 34.4762 12.382 35.2438 9.51181 35.2438C6.64158 35.2438 4.3387 34.4762 2.60321 32.9409C0.86772 31.4057 0 29.3364 0 26.7332ZM18.6231 13.8172H0.4004V10.5131L15.6194 2.40301H0.4004V0H18.6231V3.30412L3.30403 11.4142H18.6231V13.8172Z" fill="#CCCCCC"/>
</svg>
